<svg width="40" height="40" viewBox="0 0 40 40" fill="none" xmlns="http://www.w3.org/2000/svg">
<circle cx="19.9999" cy="19.9999" r="15.1999" stroke="white" stroke-width="1.59999"/>
<circle cx="20" cy="20" r="10.1996" stroke="white" stroke-width="0.799995"/>
<path fill-rule="evenodd" clip-rule="evenodd" d="M27.1646 18.6897L27.1646 21.3117L28.1646 21.5117L28.1646 18.4897L27.1646 18.6897Z" fill="white"/>
<path fill-rule="evenodd" clip-rule="evenodd" d="M32.7642 17.2751L32.7642 22.7246L31.7642 22.5246L31.7642 17.4751L32.7642 17.2751Z" fill="white"/>
<path fill-rule="evenodd" clip-rule="evenodd" d="M37.5996 20.5L37.5996 19.5L27.766 19.5L23.5991 20L27.766 20.5L37.5996 20.5Z" fill="white"/>
<path fill-rule="evenodd" clip-rule="evenodd" d="M12.835 21.3103L12.835 18.6883L11.835 18.4883L11.835 21.5103L12.835 21.3103Z" fill="white"/>
<path fill-rule="evenodd" clip-rule="evenodd" d="M7.23536 22.7249L7.23536 17.2754L8.23535 17.4754L8.23535 22.5249L7.23536 22.7249Z" fill="white"/>
<path fill-rule="evenodd" clip-rule="evenodd" d="M2.3999 19.5L2.3999 20.5L12.2335 20.5L16.4004 20L12.2335 19.5L2.3999 19.5Z" fill="white"/>
<path fill-rule="evenodd" clip-rule="evenodd" d="M21.3113 27.166H18.6893L18.4893 28.166H21.5113L21.3113 27.166Z" fill="white"/>
<path fill-rule="evenodd" clip-rule="evenodd" d="M22.7249 32.7656H17.2754L17.4754 31.7656L22.5249 31.7656L22.7249 32.7656Z" fill="white"/>
<path fill-rule="evenodd" clip-rule="evenodd" d="M19.5 37.6016L20.5 37.6016L20.5 27.7679L20 23.601L19.5 27.7679L19.5 37.6016Z" fill="white"/>
<path fill-rule="evenodd" clip-rule="evenodd" d="M21.3113 12.8359H18.6893L18.4893 11.8359H21.5113L21.3113 12.8359Z" fill="white"/>
<path fill-rule="evenodd" clip-rule="evenodd" d="M22.7249 7.23633H17.2754L17.4754 8.23633L22.5249 8.23633L22.7249 7.23633Z" fill="white"/>
<path fill-rule="evenodd" clip-rule="evenodd" d="M19.5 2.40039L20.5 2.40039L20.5 12.234L20 16.4009L19.5 12.234L19.5 2.40039Z" fill="white"/>
<circle cx="19.9998" cy="20.0013" r="1.51103" fill="white"/>
</svg>
