<svg width="40" height="40" viewBox="0 0 40 40" fill="none" xmlns="http://www.w3.org/2000/svg">
<path fill-rule="evenodd" clip-rule="evenodd" d="M3.75947 12.7304L3.75946 27.3186L30.3923 25.7186L32.1923 22.9215V27.5186L1.95947 29.1186L1.95948 10.9304L25.9207 9.96484V10.9304L3.75947 12.7304Z" fill="white"/>
<path d="M2.86377 31.7079L33.2405 30.0605L38.3125 36.8268L6.38276 39.1779L2.86377 31.7079Z" fill="white"/>
<path d="M5.90479 33.3679L32.348 31.6602L33.2102 32.7035L6.28605 34.5237L5.90479 33.3679Z" fill="black"/>
<path d="M7.50488 36.0301L33.9481 34.3223L34.8103 35.3656L7.88615 37.1858L7.50488 36.0301Z" fill="black"/>
<path d="M28.9204 5.27388C28.9204 4.65407 29.4785 4.18355 30.0893 4.28826L36.6679 5.4159C37.148 5.49819 37.499 5.91442 37.499 6.40151V19.3395C37.499 19.9531 36.9515 20.422 36.3452 20.3276L29.7666 19.3038C29.2796 19.228 28.9204 18.8086 28.9204 18.3157V5.27388Z" fill="white"/>
<path d="M29.8096 18.0195V5.96185C29.8096 5.58608 30.151 5.30279 30.5203 5.37217L36.5762 6.5098C35.1238 11.1177 31.8099 13.6331 29.8096 18.0195Z" fill="black"/>
<path d="M15.6025 16.4531L20.5766 19.1728L15.6025 21.8925V16.4531Z" fill="white"/>
</svg>
