<svg width="40" height="40" viewBox="0 0 40 40" fill="none" xmlns="http://www.w3.org/2000/svg">
<path fill-rule="evenodd" clip-rule="evenodd" d="M18.524 2.44396C19.6614 2.28261 20.8174 2.45203 21.7553 3.25074L21.7545 3.24912L21.8441 3.37095C21.9177 3.34256 21.9937 3.32096 22.0711 3.3064C22.1467 3.29466 22.4109 3.30091 22.5616 3.30448C22.6076 3.30557 22.643 3.3064 22.6592 3.3064C22.7287 3.3064 22.7877 3.34594 22.8273 3.45969C22.8412 3.49973 22.8257 3.58935 22.8062 3.70185C22.7704 3.90895 22.7212 4.19357 22.8176 4.38909L23.1237 5.01273C23.1237 5.01273 23.2279 5.41289 23.1092 5.47259C22.943 5.53581 22.7675 5.57098 22.5898 5.57667C22.5366 5.57392 22.4962 5.62151 22.4414 5.68604C22.3996 5.73529 22.3494 5.79442 22.2788 5.84855C22.1156 5.9736 21.765 5.92923 21.765 5.92923C21.765 5.92923 21.7747 6.49316 21.9572 6.69566C21.9623 6.70123 21.9678 6.70726 21.9736 6.71369C22.0818 6.83217 22.3181 7.091 22.1648 7.25476C22.0641 7.32562 21.9497 7.37454 21.8288 7.39836C21.81 7.3919 21.8187 7.44593 21.8308 7.52113C21.8338 7.53987 21.837 7.55993 21.8401 7.58069C21.8471 7.62834 21.8768 7.66567 21.9051 7.70112C21.9385 7.74311 21.9698 7.78247 21.9589 7.83321C21.9473 7.91749 21.9114 7.99657 21.8555 8.06072C21.8433 8.06838 21.8554 8.08056 21.8726 8.09806C21.9118 8.13776 21.9779 8.20482 21.8506 8.3084C21.7402 8.39823 21.7177 8.62832 21.7431 8.78587C21.3981 9.93705 19.4291 9.45731 17.4257 8.28525C17.4257 10.1003 19.7106 11.9989 20.7615 10.948C20.8638 10.8457 21.0596 10.7178 21.299 10.5614L21.2991 10.5614L21.2991 10.5614C21.7031 10.2975 22.2312 9.95265 22.6427 9.51332C22.6634 9.55051 22.6817 9.58098 22.6997 9.60078C23.9671 10.9909 26.0322 12.9875 27.6997 13.0008C28.9919 13.0876 29.6249 12.5659 30.2903 12.0175C30.691 11.6872 31.1035 11.3473 31.6787 11.1248C32.3808 11.0459 32.7169 11.0676 33.3778 11.1101C33.4506 11.1148 33.5273 11.1197 33.6089 11.1248C33.3868 11.3105 33.1515 11.4942 32.9146 11.6791C32.2261 12.2164 31.5248 12.7638 31.0997 13.4008C31.0233 13.5153 31.0414 13.6028 31.0663 13.7238C31.0817 13.7986 31.0997 13.8862 31.0997 14.0008C30.7553 14.4033 30.1351 14.8608 29.6187 15.2416C29.3196 15.4622 29.0554 15.6571 28.8997 15.8008C27.5997 17.0008 26.3997 16.6008 24.8997 15.8008C23.3997 15.0008 22.8838 13.9365 22.8838 13.9365L22.9032 14.0397C23.0219 14.6609 23.188 16.9773 23.188 18.9998C21.3241 19.2972 19.7903 21.0288 19.7903 21.0288C19.901 20.9951 20.0204 20.9583 20.1474 20.9192C22.0169 20.3439 25.5323 19.2619 27.1919 19.8945C28.6766 20.3592 30.3035 23.8009 29.646 23.8009C29.5964 23.8109 29.5494 23.831 29.5079 23.8598C29.5079 23.8598 29.5474 24.3132 29.4885 24.452C29.4707 24.4915 29.4488 24.5291 29.423 24.5641C29.4355 24.8292 29.4773 25.2539 29.5279 25.7682C29.7082 27.6021 30.0006 30.5754 29.478 31.5137C29.1427 32.1155 28.9052 32.2236 28.9052 32.2236V32.8553C28.9071 32.9453 29.6074 33.6273 30.229 34.2326C30.644 34.6368 31.0239 35.0067 31.1372 35.1433C31.3795 35.435 31.6882 35.625 31.884 35.7454C31.9996 35.8166 32.0759 35.8635 32.0759 35.8928C32.0759 35.9298 32.1518 35.9495 32.2467 35.9741C32.3546 36.0021 32.4871 36.0365 32.5606 36.1098C32.6987 36.2478 32.6357 36.6318 32.0961 36.9086C31.5565 37.1853 30.2963 37.2361 29.6177 37.2046C29.08 37.1797 28.4084 36.7176 28.0739 36.4875C27.9863 36.4272 27.9219 36.3828 27.889 36.3664C27.8324 36.3382 27.6752 36.3628 27.4846 36.3927C27.1418 36.4465 26.6913 36.5172 26.5262 36.3269C25.8636 35.5631 26.0482 33.5134 26.3105 32.5399C26.409 32.2024 26.2268 32.0853 26.021 31.9531C25.938 31.8997 25.8512 31.8439 25.7774 31.7702C24.8612 30.8552 24.959 29.3751 25.047 28.0441C25.1176 26.9764 25.1818 26.0046 24.7111 25.4975C24.0344 24.6574 23.5407 25.2482 22.9309 25.9778C22.1682 26.8906 21.2238 28.0206 19.5128 26.8384C19.3588 26.732 19.1478 26.8669 18.9057 27.0217C18.744 27.1251 18.5685 27.2374 18.3867 27.2926C17.9327 27.4306 17.36 28.6536 17.36 28.6536C17.36 28.6536 17.5175 29.2313 17.3398 29.7024C17.181 30.1235 17.2118 30.4369 17.2623 30.9496C17.2683 31.0106 17.2745 31.0745 17.2808 31.1417C17.3329 31.6996 17.2899 34.0726 16.5796 34.1994C15.8012 34.3384 15.7977 34.479 15.7923 34.6988C15.7881 34.8686 15.7827 35.0857 15.4176 35.3857C14.663 36.0057 13.111 36.5562 12.455 35.3857C12.4145 35.3134 12.163 35.0892 11.8454 34.8062C11.604 34.591 11.3245 34.3417 11.0704 34.0993C10.8597 33.8984 10.8128 33.7572 10.7827 33.6667C10.7492 33.5659 10.7366 33.528 10.5415 33.5402C10.1362 33.5657 9.67783 34.2324 9.53485 35.3857C9.42431 36.2773 7.77898 36.3857 7.35987 35.9962C6.94075 35.6067 7.6397 33.1978 8.39342 32.0148C8.63564 31.7564 8.81321 31.3903 8.99019 31.0254C9.31202 30.3619 9.63186 29.7024 10.3348 29.7024C10.6449 29.7418 11.213 30.0493 11.7727 30.3523C12.5255 30.7599 13.2632 31.1593 13.338 30.8871C13.6429 29.7779 13.3525 28.783 13.0495 27.7445C12.6658 26.4293 12.2616 25.0444 13.0204 23.2692C13.0204 23.2692 12.623 23.1208 12.455 22.815C11.7209 21.4791 11.8694 19.3697 12.0192 17.2437C12.1389 15.545 12.2593 13.8357 11.9307 12.502C11.9214 12.4643 11.9093 12.426 11.8969 12.3865C11.8544 12.2512 11.8074 12.1017 11.8499 11.9107C11.8913 11.7246 11.8423 11.6733 11.7566 11.5833C11.7285 11.5539 11.6965 11.5204 11.6625 11.4766C11.5682 11.3554 11.6528 11.005 11.7226 10.7159C11.755 10.5816 11.7843 10.4606 11.7909 10.3818C11.8119 10.1333 12.1367 9.60731 12.5123 9.32575C12.8879 9.04418 13.3759 8.91106 13.6247 8.8562C14.2054 8.72816 14.4783 8.5534 14.7587 8.37382C14.9949 8.22258 15.2365 8.06792 15.6717 7.93487C15.7128 7.92229 15.7884 7.89469 15.8725 7.86399C16.031 7.80611 16.2197 7.73721 16.2646 7.73721C16.2946 7.73721 16.2832 7.67175 16.2684 7.58622C16.2492 7.47623 16.2243 7.33302 16.2743 7.25314C16.3378 7.15162 16.583 7.133 16.8045 7.11618C16.8928 7.10947 16.9772 7.10306 17.0449 7.09179C17.0756 7.0884 17.1051 7.07855 17.1317 7.06287C17.1582 7.0472 17.1811 7.02608 17.1988 7.0009C17.2165 6.97572 17.2287 6.94706 17.2345 6.91683C17.2402 6.8866 17.2395 6.85549 17.2324 6.82555C17.2324 6.82555 16.5037 6.59401 16.3421 6.35762C16.2148 6.17133 16.2822 6.03966 16.3212 5.96339C16.3317 5.94288 16.3401 5.92638 16.3421 5.9139C16.3455 5.89328 16.3586 5.87374 16.378 5.84481C16.4141 5.7911 16.4718 5.70499 16.5296 5.51939C16.5832 5.35255 16.5832 5.17312 16.5296 5.00628L16.4407 4.90785L16.5489 4.25678H16.6297C16.6563 4.17988 16.6761 4.10078 16.6887 4.0204C16.7396 3.79289 17.3866 2.60532 18.524 2.44396ZM14.0678 11.5698C13.5892 11.7242 13.8044 13.2144 14.212 13.7331C14.3929 13.9634 14.2771 14.3038 14.1516 14.6724C13.9945 15.1341 13.8223 15.6401 14.1993 16.0297C14.597 16.4407 14.3512 17.5101 14.1306 18.4693C13.9753 19.1451 13.8325 19.7662 13.9362 20.0639C14.0988 19.901 14.649 19.6597 15.3834 19.3377C17.7089 18.3181 21.881 16.489 21.4376 13.7731C20.1492 16.3985 16.7905 17.304 15.9969 16.6505C15.7924 15.3065 14.9691 12.5253 14.0678 11.5698Z" fill="white"/>
<path fill-rule="evenodd" clip-rule="evenodd" d="M37.5112 7.37697L37.9496 7.65475L38.2836 7.72845C38.3632 8.00115 38.518 8.64399 38.5013 9.03383C38.4803 9.52112 38.3558 9.90687 38.3051 9.95863C38.2645 10 38.1002 9.97769 38.0231 9.96134L37.9218 10.2612C37.894 10.2829 37.8612 10.3113 37.8272 10.3407C37.7468 10.4102 37.66 10.4854 37.6172 10.4914C37.5633 10.4991 35.8796 10.5064 35.0371 10.51L35.0369 10.51L34.7592 10.5112L34.6675 10.4213L31.2493 10.4542C31.1548 10.4535 30.7995 10.42 30.6343 10.1551L28.4787 10.1759C27.0277 10.6647 26.7548 10.8612 25.9958 12.5624C25.8476 12.8946 25.4283 12.7899 25.3062 12.7594L25.2958 12.7568L23.3539 11.9838C23.2745 11.9274 23.104 11.7952 23.0575 11.7173C22.9994 11.6199 22.507 10.4901 22.6594 9.36226C22.7813 8.45999 23.4788 7.99403 23.8123 7.87383C23.8989 7.83219 24.1163 7.74848 24.2926 7.74678L25.9412 7.73093C26.0307 7.66966 26.2108 7.54118 26.2151 7.51741C26.2194 7.49365 26.2249 7.46036 26.2271 7.44668L26.5209 7.44386C26.8489 7.44226 27.0674 7.44343 27.3148 7.44475L27.3148 7.44475C27.5506 7.44601 27.8126 7.44741 28.2208 7.44669L28.4104 6.57276L27.7549 6.14347L28.0931 5.68683L28.8755 6.30216L29.2271 7.44386L37.5112 7.37697ZM25.3312 11.3846C25.9911 11.1812 26.357 10.4676 26.1484 9.79077C25.9398 9.11392 25.4629 8.71507 24.803 8.91845C25.1161 9.07403 24.9868 9.51473 24.8571 9.64465C24.956 9.85509 24.8778 10.0764 24.7004 10.182C24.6862 10.3836 24.5928 10.5969 24.2845 10.5957C24.1985 10.7887 24.0735 10.7813 23.9576 10.7745C23.908 10.7715 23.8601 10.7687 23.8176 10.7817C24.0262 11.4586 24.6712 11.5879 25.3312 11.3846ZM28.2968 8.34232L34.6151 8.33674L34.6158 9.13674L28.2975 9.14231L28.2968 8.34232ZM36.7014 9.40365C37.0839 9.40365 37.394 9.09354 37.394 8.711C37.394 8.32846 37.0839 8.01836 36.7014 8.01836C36.3189 8.01836 36.0088 8.32846 36.0088 8.711C36.0088 9.09354 36.3189 9.40365 36.7014 9.40365Z" fill="white"/>
<rect x="27.9102" y="4.70312" width="0.687799" height="2.13332" rx="0.199999" transform="rotate(31.7483 27.9102 4.70312)" fill="white"/>
</svg>
