<svg width="40" height="40" viewBox="0 0 40 40" fill="none" xmlns="http://www.w3.org/2000/svg">
<path d="M29.2208 9.14647L25.1107 11.6461L16.9366 19.8605L12.3921 23.6244L9.3295 28.6393L9.7889 30.0508L11.2026 30.5032L16.2263 27.4399L19.9439 22.8531L28.118 14.6386L30.5974 10.5163C31.1359 9.62092 30.1135 8.60356 29.2208 9.14647Z" fill="white"/>
<path d="M11.9181 31.2022L16.5989 28.2547L16.0449 30.6602L10.7582 35.973L11.9181 31.2022Z" fill="white"/>
<path d="M8.627 27.9265L11.2752 23.5089L9.23179 23.7136L3.86196 29.1099L8.627 27.9265Z" fill="white"/>
<path d="M23.138 23.1999L24.8897 21.4396L25.2656 18.8594L23.1302 21.0053L22.0368 22.1041L23.138 23.1999Z" fill="white"/>
<path d="M16.5835 16.6763L18.3352 14.916L20.9136 14.5273L18.7782 16.6733L17.6848 17.7721L16.5835 16.6763Z" fill="white"/>
<path d="M33.937 27.9314C33.937 27.7185 34.0127 27.5056 34.0127 27.2217C34.0127 25.6603 32.6489 24.3828 30.9819 24.3828C29.7696 24.3828 28.7845 25.0216 28.2541 25.9442C28.1026 25.8732 27.7995 25.8022 27.5722 25.8022C26.5114 25.8022 25.6779 26.5829 25.6779 27.5765C25.6779 27.7185 25.6779 27.8604 25.7537 27.9314C24.3898 28.1443 23.4048 29.1379 23.4048 30.4154C23.4048 31.7639 24.6171 32.8994 26.0568 32.8994C26.0568 32.8994 27.1348 32.8994 29.0431 32.8994C30.9514 32.8994 31.6644 30.4154 31.6644 28.5564C32.9646 30.6534 32.0419 32.8994 32.0419 32.8994C33.4815 32.8994 36.2859 31.7639 36.2859 30.4154C36.2859 29.1379 35.3009 28.0733 33.937 27.9314Z" fill="white"/>
<path d="M12.8992 8.86398C12.8992 8.66859 12.9723 8.4732 12.9723 8.21267C12.9723 6.77978 11.6577 5.60742 10.0509 5.60742C8.88239 5.60742 7.93295 6.1936 7.42172 7.04031C7.27565 6.97518 6.98351 6.91005 6.76441 6.91005C5.74194 6.91005 4.93857 7.62649 4.93857 8.53833C4.93857 8.66859 4.93857 8.79885 5.0116 8.86398C3.697 9.05938 2.74756 9.97122 2.74756 11.1436C2.74756 12.3811 4.33731 13.5358 6.28926 13.4232C6.28926 13.4232 5.53017 12.2128 6.93991 9.48006C6.93991 11.432 7.00497 13.4232 8.95542 13.4232C10.9059 13.4232 9.86834 13.4232 9.86834 13.4232H10.7813H12.6071C13.9947 13.4232 15.1633 12.3811 15.1633 11.1436C15.1633 9.97122 14.2138 8.99425 12.8992 8.86398Z" fill="white"/>
</svg>
