<svg width="40" height="40" viewBox="0 0 40 40" fill="none" xmlns="http://www.w3.org/2000/svg">
<path fill-rule="evenodd" clip-rule="evenodd" d="M31.6788 9.04211L30.458 8.96062L13.7646 18.3617L13.3322 17.5844L13.038 17.5481L10.2058 19.1236L9.13721 19.718C9.12828 19.7493 9.10571 19.8399 9.08685 19.9516C9.06799 20.0632 9.30938 20.4122 9.43243 20.5728L8.82739 20.9094C8.83818 20.9402 8.86424 21.0153 8.88212 21.0694C8.89999 21.1234 8.67175 21.5922 8.5554 21.8199L5.15951 23.7089C4.79638 23.9109 4.44047 24.329 4.30791 24.5128C3.75269 25.1372 2.8331 26.8874 3.59655 28.893C4.55087 31.4 6.84263 33.185 7.07253 33.3213C7.25645 33.4303 7.75837 33.5121 7.98635 33.5394L12.8778 32.9538L12.9023 32.9474C13.1893 32.873 14.1756 32.6176 14.1084 31.7629C13.7646 27.3856 14.1084 26.6716 16.5625 24.0256L21.0029 21.5555C21.6431 21.9179 22.4166 21.5873 22.613 21.4823L29.6541 17.5655L29.9451 17.6485C31.0228 17.0562 32.9695 15.9827 33.798 15.5148C33.7515 15.1742 33.7251 14.8097 33.6974 14.4274C33.6042 13.14 33.4964 11.6515 32.5567 10.2004C33.6004 11.1977 34.2086 12.4219 34.495 13.7145C34.6846 13.6514 34.9756 13.5291 35.0088 13.4125C35.0557 13.2482 34.8791 12.3093 34.3738 11.2766C33.9696 10.4505 32.9251 9.29379 32.4534 8.81867L31.6788 9.04211ZM17.5599 19.2707L15.1157 20.6303C15.1157 20.6303 14.9299 20.8891 15.5029 21.9192C16.0759 22.9493 16.3937 22.9279 16.3937 22.9279L18.8379 21.5682C18.8379 21.5682 19.5111 20.7453 19.0626 19.939C18.6141 19.1327 17.5599 19.2707 17.5599 19.2707ZM6.09184 28.4856C6.75486 29.6775 8.25856 30.1063 9.45046 29.4432C10.6423 28.7802 11.574 26.5725 10.911 25.3806C10.2479 24.1887 9.44913 23.675 7.04945 25.127C5.85756 25.79 5.42882 27.2937 6.09184 28.4856ZM29.7944 12.5575C30.1807 12.3426 30.6681 12.4816 30.883 12.8679C31.0979 13.2542 30.9589 13.7416 30.5726 13.9565C30.1863 14.1714 29.6989 14.0325 29.484 13.6461C29.2691 13.2598 29.4081 12.7724 29.7944 12.5575ZM31.6922 12.4178C31.2287 11.5845 30.1775 11.2848 29.3442 11.7483C28.511 12.2118 28.2113 13.2631 28.6748 14.0963C29.1383 14.9295 30.1895 15.2293 31.0227 14.7657C31.856 14.3022 32.1557 13.251 31.6922 12.4178ZM26.1988 13.6318C25.9462 13.6716 25.7737 13.9086 25.8134 14.1612L26.1904 16.555C26.2302 16.8075 26.4672 16.9801 26.7198 16.9403C26.9724 16.9005 27.1449 16.6635 27.1051 16.4109L26.7282 14.0171C26.6884 13.7645 26.4514 13.592 26.1988 13.6318ZM24.1187 14.7889C23.8662 14.8286 23.6936 15.0657 23.7334 15.3183L24.1104 17.712C24.1502 17.9646 24.3872 18.1371 24.6398 18.0974C24.8924 18.0576 25.0649 17.8206 25.0251 17.568L24.6481 15.1742C24.6084 14.9216 24.3713 14.7491 24.1187 14.7889ZM22.0387 15.9459C21.7861 15.9857 21.6136 16.2227 21.6534 16.4753L22.0304 18.8691C22.0701 19.1217 22.3072 19.2942 22.5597 19.2544C22.8123 19.2146 22.9849 18.9776 22.9451 18.725L22.5681 16.3313C22.5283 16.0787 22.2913 15.9062 22.0387 15.9459ZM15.8766 23.2224C15.2423 23.5753 14.1975 23.3866 13.8857 22.826C13.5738 22.2654 13.9644 21.2781 14.5988 20.9253C14.4574 21.2625 14.443 21.6853 14.7959 22.3196C15.0861 22.8413 15.395 22.9887 15.6888 23.1289C15.7522 23.1592 15.8149 23.1891 15.8766 23.2224Z" fill="white"/>
<path fill-rule="evenodd" clip-rule="evenodd" d="M21.8396 23.1367C22.3903 23.2604 23.0761 23.3607 23.3545 23.1796C23.5552 23.0492 24.659 22.4447 25.9461 21.7398C27.5507 20.861 29.4401 19.8263 30.2191 19.3599L30.8628 19.718C30.8717 19.7493 30.8943 19.8399 30.9131 19.9516C30.932 20.0632 30.6906 20.4122 30.5676 20.5728L31.1726 20.9094C31.1618 20.9402 31.1358 21.0153 31.1179 21.0694C31.1 21.1234 31.3282 21.5922 31.4446 21.8199L34.8405 23.7089C35.2036 23.9109 35.5595 24.329 35.6921 24.5128C36.2473 25.1372 37.1669 26.8874 36.4035 28.893C35.4491 31.4 33.1574 33.185 32.9275 33.3213C32.7436 33.4303 32.2416 33.5121 32.0137 33.5394L28.7122 32.6014C28.4624 32.5359 27.6336 32.2811 27.4815 31.4105C26.812 27.5802 25.3564 26.0605 24.1622 24.8136C23.905 24.545 23.66 24.2891 23.4375 24.0256L21.8396 23.1367ZM10.7938 17.8147L14.0519 16.1016L14.6014 16.9441L19.2754 14.4421L9.54196 8.96062L8.3212 9.04211L7.54664 8.81867C7.07492 9.29379 6.03042 10.4505 5.62619 11.2766C5.12091 12.3093 4.94433 13.2482 4.99119 13.4125C5.02868 13.544 5.39403 13.6827 5.57202 13.7356L5.44417 14.4705C5.47733 14.5469 5.51329 14.6426 5.55051 14.7417C5.63866 14.9762 5.73385 15.2295 5.81556 15.2903C5.93177 15.3767 8.69019 16.8985 10.0549 17.6485L10.3459 17.5655L10.7938 17.8147ZM30.5496 29.4432C31.7415 30.1063 33.2452 29.6775 33.9082 28.4856C34.5712 27.2937 34.1425 25.79 32.9506 25.127C30.5509 23.675 29.7521 24.1887 29.0891 25.3806C28.4261 26.5725 29.3577 28.7802 30.5496 29.4432ZM10.2057 12.5575C9.81935 12.3426 9.33197 12.4816 9.11706 12.8679C8.90216 13.2542 9.04113 13.7416 9.42745 13.9565C9.81377 14.1714 10.3012 14.0325 10.5161 13.6461C10.731 13.2598 10.592 12.7724 10.2057 12.5575ZM8.30785 12.4178C8.77136 11.5845 9.82258 11.2848 10.6558 11.7483C11.4891 12.2118 11.7888 13.2631 11.3253 14.0963C10.8618 14.9295 9.81054 15.2293 8.9773 14.7657C8.14406 14.3022 7.84434 13.251 8.30785 12.4178Z" fill="white"/>
</svg>
