<svg width="40" height="40" viewBox="0 0 40 40" fill="none" xmlns="http://www.w3.org/2000/svg">
<path d="M4 7.93984L19.1451 10.8231L32.2531 6.90234V12.8135C32.2531 12.8135 26.37 11.2979 20.5297 12.4144C18.9353 12.7192 17.9079 13.2215 17.9079 14.3393C15.6295 14.302 13.809 14.3393 13.809 14.3393C13.809 17.4239 13.2853 23.6581 15.5498 26.1799C17.1996 28.0171 16.9904 28.0269 16.9904 28.0269L4 26.1799V7.93984Z" fill="white"/>
<path d="M31.8536 16.4685V15.2185C31.8536 15.2185 29.4854 14.2109 25.6661 14.2109C21.8468 14.2109 19.4786 15.2185 19.4786 15.2185V16.4685H15.7661V20.8435C15.7661 24.3868 18.4339 27.3111 21.8468 27.6783C22.5829 28.8124 23.4591 29.6063 24.4286 29.9776V31.4685C24.4286 32.1588 23.8746 32.7185 23.1911 32.7185C21.8242 32.7185 20.7161 33.8378 20.7161 35.2185C20.7161 35.2185 21.4618 36.0918 25.6661 36.0918C29.8704 36.0918 30.6161 35.2185 30.6161 35.2185C30.6161 33.8378 29.508 32.7185 28.1411 32.7185C27.4576 32.7185 26.9036 32.1588 26.9036 31.4685V29.9857C27.8752 29.6177 28.7488 28.8131 29.4854 27.6783C32.8983 27.311 35.5661 24.3868 35.5661 20.8435V16.4685H31.8536ZM17.708 20.8435V18.9685H19.5078C19.6024 21.0773 19.9369 22.9988 20.4567 24.6373C19.1414 23.8855 17.708 22.4758 17.708 20.8435ZM28.8209 17.8586V14.4488L30.0584 14.6838V17.8586C30.0584 23.5944 29.0935 26.4301 26.2849 28.8714C29.0935 23.6871 28.8209 19.7568 28.8209 17.8586ZM33.7272 20.8435C33.7272 22.4758 32.1909 23.8855 30.8755 24.6373C31.3953 22.9988 31.7298 21.0773 31.8244 18.9685H33.7272L33.7272 20.8435Z" fill="white"/>
<path d="M5.44629 9.75391L16.4416 11.6028V12.8457L5.44629 10.9968V9.75391Z" fill="black"/>
<path d="M5.44629 12.0449L12.3755 13.0853V17.331L5.44629 16.2907V12.0449Z" fill="black"/>
<path d="M11.1244 13.9062L7.48029 16.636L5.44629 16.2902L11.1244 13.9062Z" fill="white"/>
<path d="M5.44629 17.332L12.3755 18.3724V19.2149L5.44629 18.1745V17.332Z" fill="black"/>
<path d="M5.44629 21.7656L12.3755 22.806V24.0489L5.44629 23.0085V21.7656Z" fill="black"/>
<path d="M5.44629 18.8711L10.7247 19.6636V20.5061L5.44629 19.7136V18.8711Z" fill="black"/>
<path d="M5.44629 23.5293L10.7247 24.3218V25.1643L5.44629 24.3718V23.5293Z" fill="black"/>
<path d="M28.6743 7.92007L30.6905 7.37695V9.76667L28.6743 10.3913V7.92007Z" fill="black"/>
</svg>
