<svg width="116" height="12" viewBox="0 0 116 12" fill="none" xmlns="http://www.w3.org/2000/svg">
<path d="M0 11.8545L4.74286 0.212891H7.65697L12.3998 11.8545H9.03968L8.44496 10.3379H3.96973L3.34528 11.8545H0ZM4.80233 7.86986H7.61236L6.21478 4.25699L4.80233 7.86986Z" fill="#00BAFF"/>
<path d="M20.9639 11.8506V0.208984H26.2568C27.4017 0.208984 28.3978 0.595571 29.2155 1.38357C30.0333 2.17157 30.4347 3.10822 30.4347 4.22332C30.4347 5.71011 29.6467 6.98875 28.4424 7.53886L31.3417 11.8506H27.699L25.335 8.2228H25.3053H24.1307V11.8506H20.9639ZM24.1307 5.68038H25.9C26.7475 5.68038 27.2679 5.17488 27.2679 4.31254C27.2679 3.58401 26.7772 3.0785 26.1676 3.0785H24.1307V5.68038Z" fill="#00BAFF"/>
<path d="M39.832 11.8506V0.208984H42.9989V4.93698L46.9686 0.208984H50.6856L46.3293 5.36817L50.8343 11.8506H47.0876L44.1289 7.52402L42.984 8.86213V11.8506H39.832Z" fill="#00BAFF"/>
<path d="M57.6733 11.8506L62.4162 0.208984H65.3154L70.0583 11.8506H66.6981L66.1034 10.334H61.6282L61.0037 11.8506H57.6733ZM62.4608 7.86595H65.2708L63.8732 4.25308L62.4608 7.86595Z" fill="#00BAFF"/>
<path d="M78.6221 11.8506V0.208984H83.3501C85.3721 0.208984 86.9035 0.74425 87.974 1.82961C89.0593 2.91496 89.5946 4.31253 89.5946 6.05207C89.5946 7.82135 89.0593 9.21896 87.9888 10.2746C86.9332 11.3302 85.387 11.8506 83.3649 11.8506H78.6221ZM81.8038 8.98104H83.1717C84.5098 8.98104 85.4316 8.6837 85.8479 8.10385C86.2939 7.524 86.4128 6.9293 86.4128 6.06696C86.4128 5.21949 86.2939 4.62475 85.8479 4.07464C85.4018 3.52453 84.5098 3.22717 83.1568 3.22717H81.8038V8.98104Z" fill="#00BAFF"/>
<path d="M98.5596 11.8506V0.208984H107.138V3.06365H101.726V4.66935H106.767V7.27123H101.726V9.04054H107.272V11.8506H98.5596Z" fill="#00BAFF"/>
<path d="M113.874 4.16301C113.279 4.16301 112.773 3.96973 112.372 3.5683C111.971 3.18173 111.777 2.67622 111.777 2.08151C111.777 1.48679 111.971 0.981281 112.372 0.594716C112.773 0.208151 113.294 0 113.874 0C114.468 0 114.974 0.193283 115.375 0.594716C115.792 0.981281 116 1.48679 116 2.08151C116 2.67622 115.792 3.18173 115.375 3.5683C114.974 3.96973 114.468 4.16301 113.874 4.16301ZM113.874 0.371697C112.892 0.371697 112.194 1.07049 112.194 2.08151C112.194 3.07765 112.892 3.76159 113.874 3.76159C114.855 3.76159 115.569 3.06279 115.569 2.08151C115.569 1.08536 114.855 0.371697 113.874 0.371697ZM113.101 3.24121V0.847463H113.948C114.409 0.847463 114.721 1.15969 114.721 1.59086C114.721 1.90308 114.587 2.14096 114.335 2.28964L114.914 3.24121H114.394L113.874 2.36398H113.561V3.24121H113.101ZM113.547 1.99228H113.933C114.126 1.99228 114.275 1.82874 114.275 1.62059C114.275 1.4273 114.126 1.26377 113.933 1.26377H113.547V1.99228Z" fill="#00BAFF"/>
</svg>
