<svg width="32" height="32" viewBox="0 0 32 32" fill="none" xmlns="http://www.w3.org/2000/svg">
<path d="M5.48348 17.1651C5.00629 18.9234 2.25771 23.0332 3.85188 24.6055C6.38334 27.1023 7.98721 22.6941 9.9665 20.5142C11.3771 20.3878 11.9068 20.0087 11.9068 19.7088C11.8605 19.124 8.32172 19.7366 8.00576 19.4838C7.6898 19.231 8.19533 17.4178 7.87937 17.2914C7.56342 16.9123 6.11 17.1651 5.48348 17.1651Z" fill="white"/>
<path d="M26.5009 17.1651C26.9781 18.9234 29.7267 23.0332 28.1325 24.6055C25.601 27.1023 23.9972 22.6941 22.0179 20.5142C20.6072 20.3878 20.0776 20.0087 20.0776 19.7088C20.1239 19.124 23.6627 19.7366 23.9786 19.4838C24.2946 19.231 23.789 17.4178 24.105 17.2914C24.421 16.9123 25.8744 17.1651 26.5009 17.1651Z" fill="white"/>
<path d="M11.7601 6.88323C12.9601 6.95768 12.9601 7.99988 12.9601 7.99988H9.12012C9.12012 7.99988 10.5601 6.80879 11.7601 6.88323Z" fill="white"/>
<path d="M20.0797 6.88323C18.8797 6.95768 18.8797 7.99988 18.8797 7.99988H22.7197C22.7197 7.99988 21.2797 6.80879 20.0797 6.88323Z" fill="white"/>
<path fill-rule="evenodd" clip-rule="evenodd" d="M8.72977 17.6469L8.86826 16.2967C8.91411 15.8496 8.56331 15.461 8.11392 15.461H6.59266C6.43839 15.461 6.3201 15.324 6.34259 15.1714L7.08914 10.1055C7.14398 9.73343 7.46324 9.45776 7.83934 9.45776H15.7787H24.0972C24.4733 9.45776 24.7926 9.73343 24.8474 10.1055L25.5939 15.1714C25.6164 15.324 25.4981 15.461 25.3439 15.461H23.8226C23.3732 15.461 23.0224 15.8496 23.0683 16.2967L23.2068 17.6469C23.222 17.7959 23.1051 17.9255 22.9553 17.9255H19.1596L18.7082 18.7432H13.1408L12.7591 17.9255H8.98122C8.83142 17.9255 8.71449 17.7959 8.72977 17.6469ZM19.438 14.4764C18.7801 14.9248 17.8204 15.2281 16.7503 15.326L16.0001 13.12L15.3882 15.3374C14.3125 15.2576 13.3344 14.9705 12.6487 14.5334C11.9631 14.0964 11.6203 13.5413 11.6887 12.979C11.7571 12.4167 12.2316 11.8884 13.0177 11.4995C13.8038 11.1105 14.8437 10.8894 15.9302 10.8803C17.0166 10.8712 18.0698 11.0747 18.8798 11.4502C19.6898 11.8258 20.197 12.3458 20.3005 12.9067C20.404 13.4676 20.096 14.028 19.438 14.4764Z" fill="white"/>
</svg>
