<svg width="32" height="32" viewBox="0 0 32 32" fill="none" xmlns="http://www.w3.org/2000/svg">
<path fill-rule="evenodd" clip-rule="evenodd" d="M29.2485 14.1159L28.4131 13.6059L13.0937 14.0876L13.0751 13.3762L12.8799 13.2415L10.2881 13.3093L9.31017 13.335C9.29223 13.3539 9.24268 13.4097 9.18794 13.4819C9.13319 13.5541 9.17505 13.891 9.20283 14.0504L8.64913 14.0649C8.64536 14.0908 8.636 14.1537 8.62866 14.1987C8.62131 14.2436 8.2858 14.4915 8.11896 14.6098L5.01125 14.6912C4.67894 14.6999 4.27168 14.8645 4.10959 14.9457C3.4846 15.1827 2.18418 16.083 1.98251 17.788C1.73043 19.9191 2.69413 22.0338 2.80666 22.2156C2.89668 22.3611 3.22227 22.605 3.37381 22.7088L7.05908 24.1056L7.07882 24.1102C7.3099 24.1638 8.10385 24.3481 8.3729 23.7171C9.75075 20.486 10.259 20.1071 12.9794 19.1401L17.0429 19.0336C17.3626 19.5278 18.0336 19.5799 18.2117 19.5782L24.6552 19.4095L24.9203 20.4216C25.754 20.404 27.1587 20.3726 28.0306 20.3483C28.1361 20.0367 28.2887 19.6816 28.4554 19.294C28.9504 18.1426 29.5689 16.7039 29.4419 15.2626C29.7506 16.2468 29.7478 17.3994 29.563 18.476C29.8016 18.4996 30.2865 18.5153 30.3499 18.4485C30.444 18.3493 30.6956 17.1594 30.7198 16.24C30.735 15.6648 30.5298 15.0817 30.3638 14.6102C30.3176 14.4787 30.2743 14.356 30.2398 14.2445L29.2485 14.1159ZM15.4481 16.1382L13.2113 16.1968C13.2113 16.1968 12.9837 16.3114 13.0084 17.2541C13.0331 18.1968 13.2664 18.2993 13.2664 18.2993L15.5032 18.2408C15.5032 18.2408 16.2854 17.9066 16.2661 17.1688C16.2467 16.4309 15.4481 16.1382 15.4481 16.1382ZM3.90279 18.4236C3.93136 19.5144 4.83874 20.3754 5.92949 20.3469C7.02023 20.3183 8.4987 19.098 8.47013 18.0073C8.44156 16.9165 8.06545 16.2564 5.82603 16.3969C4.73528 16.4255 3.87422 17.3329 3.90279 18.4236ZM26.6101 15.9106C26.9636 15.9013 27.2577 16.1804 27.267 16.5339C27.2762 16.8875 26.9971 17.1816 26.6436 17.1908C26.2901 17.2001 25.996 16.921 25.9867 16.5675C25.9774 16.2139 26.2565 15.9198 26.6101 15.9106ZM28.0075 16.5145C27.9875 15.752 27.3532 15.1501 26.5907 15.17C25.8281 15.19 25.2262 15.8243 25.2461 16.5869C25.2661 17.3494 25.9005 17.9514 26.663 17.9314C27.4255 17.9114 28.0275 17.2771 28.0075 16.5145ZM23.6626 15.3403C23.4688 15.2749 23.2586 15.379 23.1933 15.5729L22.5738 17.4098C22.5084 17.6037 22.6125 17.8138 22.8064 17.8792C23.0002 17.9446 23.2103 17.8404 23.2757 17.6466L23.8952 15.8096C23.9606 15.6158 23.8564 15.4056 23.6626 15.3403ZM21.7591 15.3901C21.5652 15.3247 21.3551 15.4289 21.2897 15.6227L20.6702 17.4597C20.6049 17.6535 20.709 17.8637 20.9029 17.929C21.0967 17.9944 21.3068 17.8903 21.3722 17.6964L21.9917 15.8595C22.0571 15.6656 21.9529 15.4555 21.7591 15.3901ZM19.8556 15.44C19.6617 15.3746 19.4516 15.4787 19.3862 15.6726L18.7667 17.5096C18.7014 17.7034 18.8055 17.9135 18.9993 17.9789C19.1932 18.0443 19.4033 17.9401 19.4687 17.7463L20.0882 15.9093C20.1536 15.7155 20.0494 15.5053 19.8556 15.44ZM12.7906 18.3166C12.2101 18.3318 11.5392 17.8109 11.5258 17.2979C11.5123 16.7849 12.155 16.2296 12.7355 16.2144C12.5104 16.4011 12.3436 16.6956 12.3588 17.2761C12.3713 17.7535 12.5357 17.9725 12.692 18.1807C12.7258 18.2257 12.7592 18.2702 12.7906 18.3166Z" fill="white"/>
<path fill-rule="evenodd" clip-rule="evenodd" d="M11.1558 8.68354L13.0197 10.3689L13.0416 13.5492L11.7616 13.558L11.7436 10.9407L10.2973 9.63297L11.1558 8.68354Z" fill="white"/>
<path fill-rule="evenodd" clip-rule="evenodd" d="M8.52125 9.94766L11.4499 6.24265L12.4541 7.0364L9.52542 10.7414L8.52125 9.94766Z" fill="white"/>
<path d="M13.5127 11.4265C13.1444 12.1313 12.2745 12.4042 11.5696 12.0359C10.8647 11.6676 10.5918 10.7977 10.9601 10.0928C11.3284 9.38792 12.1984 9.11505 12.9033 9.48333C13.6081 9.85161 13.881 10.7216 13.5127 11.4265Z" fill="black"/>
<path fill-rule="evenodd" clip-rule="evenodd" d="M11.9401 11.3269C12.2533 11.4905 12.64 11.3693 12.8037 11.056C12.9673 10.7427 12.8461 10.3561 12.5328 10.1924C12.2195 10.0287 11.8329 10.15 11.6692 10.4633C11.5055 10.7765 11.6268 11.1632 11.9401 11.3269ZM11.5696 12.0359C12.2745 12.4042 13.1444 12.1313 13.5127 11.4265C13.881 10.7216 13.6081 9.85161 12.9033 9.48333C12.1984 9.11505 11.3284 9.38792 10.9601 10.0928C10.5918 10.7977 10.8647 11.6676 11.5696 12.0359Z" fill="white"/>
</svg>
