<svg width="32" height="32" viewBox="0 0 32 32" fill="none" xmlns="http://www.w3.org/2000/svg">
<path d="M27.743 6.35294L16.8843 10.0571V26.7671L27.921 23.0628L28.9946 21.3946V7.61739L27.743 6.35294Z" fill="white"/>
<path fill-rule="evenodd" clip-rule="evenodd" d="M26.2034 10.9197L19.6919 13.3266V12.2547L27.1948 9.29312L26.2034 10.9197Z" fill="black"/>
<path fill-rule="evenodd" clip-rule="evenodd" d="M26.2034 13.8331L19.6919 16.24V15.1682L27.1948 12.2066L26.2034 13.8331Z" fill="black"/>
<path fill-rule="evenodd" clip-rule="evenodd" d="M26.2034 16.7466L19.6919 19.1534V18.0816L27.1948 15.12L26.2034 16.7466Z" fill="black"/>
<path fill-rule="evenodd" clip-rule="evenodd" d="M23.9336 20.6484L19.6919 22.0669V20.995L24.925 19.0219L23.9336 20.6484Z" fill="black"/>
<path d="M4.41713 6.19293L15.1158 10.0571V26.7671L4.23916 22.9028L3.16553 21.0746V7.45739L4.41713 6.19293Z" fill="white"/>
<path fill-rule="evenodd" clip-rule="evenodd" d="M4.98145 9.30753L13.14 12.3762V20.6635L9.10727 19.2461V24.7581L7.81286 24.3829V17.5772L11.8455 18.9946V13.1471L6.27585 10.9506V13.0044L4.98145 12.4417V9.30753Z" fill="black"/>
</svg>
