<svg width="32" height="32" viewBox="0 0 32 32" fill="none" xmlns="http://www.w3.org/2000/svg">
<path fill-rule="evenodd" clip-rule="evenodd" d="M16.6959 8.64944L4.5915 6.34509V20.9231L15.4399 22.3343C15.5199 21.92 15.5999 21.92 15.8012 21.68C15.4844 21.3395 15.0698 20.8878 14.5599 20.32C12.75 18.3045 11.9404 16.32 12.7999 14.16C13.5332 12.3169 15.8713 10.2905 17.8025 9.92127C19.9066 9.51902 21.4702 11.1148 23.1419 12.8208L23.1999 12.88C25.2205 14.9417 27.1721 17.2 27.1721 17.2V5.5159L16.6959 8.64944ZM22.3199 8.67332L26.1779 7.67999V9.31332L23.1419 9.92127L22.3199 8.67332ZM14.5353 9.27311L5.74752 7.79542V9.10875L14.5353 10.5864V9.27311ZM11.2856 11.4179L5.74756 10.5864V13.9797L10.2857 12.0744L7.40908 14.2292L11.2856 14.8113V11.4179ZM5.74756 15.7957L11.2856 16.6272V17.9405L5.74756 17.109V15.7957ZM5.74756 18.1957L11.2856 19.0272V20.0205L5.74756 19.189V18.1957Z" fill="white"/>
<path fill-rule="evenodd" clip-rule="evenodd" d="M19.2396 21.3699C19.455 21.5244 19.5044 21.8242 19.35 22.0397C17.7831 24.225 16.261 25.6828 14.7403 25.9621C13.2464 26.2365 11.8404 25.8146 10.5851 25.4177C10.5369 25.4024 10.4889 25.3872 10.4412 25.3721C9.20269 24.9798 8.12721 24.6391 7.06676 24.7855C6.0176 24.9303 4.89517 25.5749 3.68363 27.4596C3.54028 27.6825 3.24329 27.7471 3.0203 27.6038C2.79731 27.4604 2.73274 27.1634 2.8761 26.9404C4.18455 24.9051 5.52212 24.0296 6.93546 23.8345C8.21804 23.6574 9.48844 24.0615 10.6603 24.4343C10.7321 24.4571 10.8035 24.4799 10.8746 24.5023C12.1493 24.9054 13.3384 25.2435 14.5669 25.0179C15.7687 24.7972 17.0966 23.5349 18.5698 21.4803C18.7242 21.2649 19.0241 21.2154 19.2396 21.3699Z" fill="white"/>
<path fill-rule="evenodd" clip-rule="evenodd" d="M22.9379 26.5132C24.1893 27.7611 26.2154 27.7583 27.4634 26.5069L28.9321 25.0341C30.1801 23.7827 30.1773 21.7566 28.9259 20.5086L20.5737 12.1796C19.3223 10.9317 17.2962 10.9345 16.0483 12.1859L14.5795 13.6587C13.3316 14.9101 13.3344 16.9362 14.5858 18.1842L22.9379 26.5132ZM18.9376 17.3398L17.9536 16.329L16.9428 17.313L16.3438 16.6978L17.3546 15.7138L16.3706 14.703L16.9859 14.104L17.9699 15.1148L18.9807 14.1308L19.5797 14.7461L18.5689 15.7301L19.5529 16.7409L18.9376 17.3398ZM22.1736 16.7063L24.0936 18.6263L24.5461 18.1737L22.6261 16.2537L22.1736 16.7063ZM25.1198 24.64C26.0035 24.64 26.7198 23.9236 26.7198 23.04C26.7198 22.1563 26.0035 21.44 25.1198 21.44C24.2362 21.44 23.5198 22.1563 23.5198 23.04C23.5198 23.9236 24.2362 24.64 25.1198 24.64Z" fill="white"/>
</svg>
