<svg width="32" height="32" viewBox="0 0 32 32" fill="none" xmlns="http://www.w3.org/2000/svg">
<path fill-rule="evenodd" clip-rule="evenodd" d="M28.5357 15.9685L24.8731 2.27155L21.2105 15.9685L24.8731 12.3451L28.5357 15.9685ZM9.50665 10.1685L5.43994 13.3865V29.7285L9.05905 28.3381L10.4748 25.0623L10.5961 27.6831L15.6421 28.639L17.234 27.6112L13.6944 22.009L8.29898 23.9182V18.1902L12.2667 16.9503L14.6143 13.8913C14.4483 13.6341 14.352 13.3277 14.352 12.9988C14.352 12.0886 15.0898 11.3508 16 11.3508C16.9102 11.3508 17.648 12.0886 17.648 12.9988C17.648 13.909 16.9102 14.6469 16 14.6469C15.8273 14.6469 15.6609 14.6203 15.5045 14.5711L12.9393 17.9136L9.41898 19.0137V22.3338L14.1637 20.6549L18.1749 27.0036L20.6799 25.3861L24.8731 28.0665V15.6261L19.6142 18.2375L21.2105 7.95728L14.782 10.1685H9.50665Z" fill="white"/>
</svg>
